# Blender 3.6.5
# www.blender.org
o Plane
v -6.813851 0.000000 6.813851
v 6.813851 0.000000 6.813851
v -6.813851 0.000000 -6.813851
v 6.813851 0.000000 -6.813851
vn -0.0000 1.0000 -0.0000
vt 0.000000 0.000000
vt 1.000000 0.000000
vt 1.000000 1.000000
vt 0.000000 1.000000
s 0
f 1/1/1 2/2/1 4/3/1 3/4/1
o Plane.001
v -1.000000 0.032559 -0.000000
v 1.000000 0.032559 -0.000000
v -1.000000 2.032559 0.000000
v 1.000000 2.032559 0.000000
vn -0.0000 -0.0000 1.0000
vt 0.000000 0.000000
vt 1.000000 0.000000
vt 1.000000 1.000000
vt 0.000000 1.000000
s 0
f 5/5/2 6/6/2 8/7/2 7/8/2
